<svg xmlns="http://www.w3.org/2000/svg" viewBox="0 0 387.78 319.89"><defs><style>.cls-1{fill:#f5f5f5;}.cls-11,.cls-2,.cls-6,.cls-8{fill:#407bff;}.cls-16,.cls-17,.cls-3,.cls-5,.cls-9{fill:#fff;}.cls-10,.cls-3{opacity:0.3;}.cls-4{fill:#263238;}.cls-6,.cls-9{opacity:0.4;}.cls-7{fill:#ebebeb;}.cls-8{opacity:0.1;}.cls-11{opacity:0.6;}.cls-12{fill:#ff5652;}.cls-13{fill:#ff8b7b;}.cls-14,.cls-15{opacity:0.2;}.cls-16{opacity:0.5;}.cls-17{opacity:0.7;}</style></defs><title>dfg3411108</title><g id="Shadow"><ellipse id="_Path_" data-name="&lt;Path&gt;" class="cls-1" cx="193.89" cy="308.57" rx="193.89" ry="11.32"/></g><g id="Desk"><rect class="cls-2" x="23.4" y="143.42" width="339.75" height="12.19"/><rect class="cls-3" x="23.4" y="143.42" width="90.93" height="12.19"/><polygon class="cls-2" points="115.78 155.61 107.87 155.61 112.01 308.39 115.78 308.39 119.55 308.39 123.69 155.61 115.78 155.61"/><polygon class="cls-3" points="112.01 308.39 115.78 308.39 115.78 158.89 108 160.32 112.01 308.39"/><polygon class="cls-2" points="40.81 155.61 32.89 155.61 37.04 308.39 40.81 308.39 44.58 308.39 48.72 155.61 40.81 155.61"/><polygon class="cls-3" points="37.04 308.39 40.81 308.39 40.81 158.89 33.02 160.32 37.04 308.39"/><polygon class="cls-2" points="345.74 155.61 337.83 155.61 341.97 308.39 345.74 308.39 349.51 308.39 353.66 155.61 345.74 155.61"/><polygon class="cls-3" points="341.97 308.39 345.74 308.39 345.74 158.89 337.96 160.32 341.97 308.39"/><polygon class="cls-2" points="270.77 155.61 262.86 155.61 267 308.39 270.77 308.39 274.54 308.39 278.68 155.61 270.77 155.61"/><polygon class="cls-3" points="267 308.39 270.77 308.39 270.77 158.89 262.98 160.32 267 308.39"/><path class="cls-4" d="M240.78,185.83H160a4.16,4.16,0,0,0-4.17,5.28l10.76,51.35a6.87,6.87,0,0,0,6.38,5.27h80.84a4.16,4.16,0,0,0,4.17-5.27l-10.77-51.35A6.87,6.87,0,0,0,240.78,185.83Z" transform="translate(-56.11 -107.67)"/><path class="cls-5" d="M173.67,244.8a4.79,4.79,0,0,1-4.32-3.6l-10.76-51.35a2.35,2.35,0,0,1,.37-2,2.17,2.17,0,0,1,1.73-.73h80.84a4.79,4.79,0,0,1,4.32,3.6l10.76,51.35a2.35,2.35,0,0,1-.37,2,2.14,2.14,0,0,1-1.73.73Z" transform="translate(-56.11 -107.67)"/><path class="cls-6" d="M234.66,240.69,224.46,192a2,2,0,0,1,1.94-2.39h13.12a2,2,0,0,1,1.94,1.58l10.2,48.65a2,2,0,0,1-1.94,2.39H236.6A2,2,0,0,1,234.66,240.69Z" transform="translate(-56.11 -107.67)"/><polygon class="cls-2" points="109.21 86.21 108.77 84.1 124.97 84.1 125.41 86.21 109.21 86.21"/><polygon class="cls-7" points="116.69 91.44 116.25 89.33 144.64 89.33 145.09 91.44 116.69 91.44"/><polygon class="cls-7" points="118.18 96.67 117.74 94.56 149.57 94.56 150.01 96.67 118.18 96.67"/><polygon class="cls-7" points="119.68 101.91 119.24 99.8 144.86 99.8 145.31 101.91 119.68 101.91"/><polygon class="cls-2" points="114.13 110.4 113.69 108.29 123.94 108.29 124.38 110.4 114.13 110.4"/><polygon class="cls-7" points="121.61 115.64 121.17 113.53 133.65 113.53 134.1 115.64 121.61 115.64"/><polygon class="cls-7" points="137.09 115.64 136.64 113.53 149.13 113.53 149.57 115.64 137.09 115.64"/><polygon class="cls-7" points="123.11 120.87 122.66 118.76 164.87 118.76 165.31 120.87 123.11 120.87"/><polygon class="cls-7" points="124.6 126.11 124.16 124 156.34 124 156.78 126.11 124.6 126.11"/><path class="cls-4" d="M278.52,247.42H172.16c-2.9,0-4.78,1.65-4.17,3.67H284.9C284.3,249.07,281.42,247.42,278.52,247.42Z" transform="translate(-56.11 -107.67)"/><path class="cls-8" d="M137.21,172.85,127,124.19a2,2,0,0,1,1.94-2.38h82.6a2,2,0,0,1,1.94,1.57L223.69,172a2,2,0,0,1-1.94,2.39h-82.6A2,2,0,0,1,137.21,172.85Z" transform="translate(-56.11 -107.67)"/><polygon class="cls-2" points="110.46 15.74 93.12 15.74 92.73 13.88 110.07 13.88 110.46 15.74"/><polygon class="cls-6" points="107.64 18.72 100.68 18.72 100.29 16.85 107.25 16.85 107.64 18.72"/><polygon class="cls-6" points="119.22 18.72 108.5 18.72 108.11 16.85 118.83 16.85 119.22 18.72"/><polygon class="cls-6" points="123.89 21.69 101.3 21.69 100.91 19.83 123.5 19.83 123.89 21.69"/><polygon class="cls-6" points="121.02 24.67 101.92 24.67 101.53 22.8 120.63 22.8 121.02 24.67"/><polygon class="cls-6" points="133.69 56.28 121.53 56.28 121.92 58.15 134.08 58.15 133.69 56.28"/><polygon class="cls-2" points="118.53 52.2 100.72 52.2 100.33 50.33 118.14 50.33 118.53 52.2"/><polygon class="cls-6" points="125.69 59.26 109.13 59.26 109.52 61.12 126.08 61.12 125.69 59.26"/><polygon class="cls-6" points="120.67 56.28 108.51 56.28 108.9 58.15 121.06 58.15 120.67 56.28"/><polygon class="cls-6" points="132.21 53.31 107.89 53.31 108.28 55.17 132.59 55.17 132.21 53.31"/><polygon class="cls-2" points="109.85 1.87 90.23 1.87 89.84 0 109.46 0 109.85 1.87"/><polygon class="cls-6" points="119.53 8.92 97.9 8.92 98.29 10.79 119.92 10.79 119.53 8.92"/><polygon class="cls-6" points="115.21 5.95 97.28 5.95 97.67 7.82 115.59 7.82 115.21 5.95"/><polygon class="cls-6" points="116.4 2.98 96.66 2.98 97.05 4.84 116.79 4.84 116.4 2.98"/><polygon class="cls-2" points="109.62 29.51 95.99 29.51 95.6 27.64 109.23 27.64 109.62 29.51"/><polygon class="cls-6" points="131.04 36.57 104.4 36.57 104.79 38.43 131.43 38.43 131.04 36.57"/><polygon class="cls-6" points="114.82 33.59 103.78 33.59 104.17 35.46 115.21 35.46 114.82 33.59"/><polygon class="cls-6" points="126.8 33.59 115.76 33.59 116.15 35.46 127.19 35.46 126.8 33.59"/><polygon class="cls-6" points="127.47 30.62 103.16 30.62 103.55 32.48 127.86 32.48 127.47 30.62"/><polygon class="cls-6" points="127.43 45.49 106.26 45.49 106.65 47.36 127.82 47.36 127.43 45.49"/><polygon class="cls-6" points="111.8 42.52 105.64 42.52 106.03 44.38 112.18 44.38 111.8 42.52"/><polygon class="cls-6" points="121.43 42.52 112.64 42.52 113.03 44.38 121.82 44.38 121.43 42.52"/><polygon class="cls-6" points="129.34 39.54 105.02 39.54 105.41 41.41 129.72 41.41 129.34 39.54"/><polygon class="cls-6" points="148.49 39.04 139.78 39.04 139.39 37.18 148.1 37.18 148.49 39.04"/><polygon class="cls-6" points="162.99 39.04 149.57 39.04 149.18 37.18 162.6 37.18 162.99 39.04"/><polygon class="cls-6" points="168.69 42.02 140.4 42.02 140.01 40.15 168.3 40.15 168.69 42.02"/><polygon class="cls-6" points="164.93 44.99 141.02 44.99 140.63 43.13 164.54 43.13 164.93 44.99"/><polygon class="cls-6" points="175.64 27.21 148.55 27.21 148.94 29.07 176.03 29.07 175.64 27.21"/><polygon class="cls-6" points="170.37 24.23 147.93 24.23 148.32 26.1 170.76 26.1 170.37 24.23"/><polygon class="cls-2" points="166.32 21.26 141.6 21.26 141.99 23.12 166.71 23.12 166.32 21.26"/><polygon class="cls-6" points="176.86 56.89 143.5 56.89 143.89 58.76 177.25 58.76 176.86 56.89"/><polygon class="cls-6" points="156.7 53.92 142.88 53.92 143.27 55.78 157.09 55.78 156.7 53.92"/><polygon class="cls-6" points="171.7 53.92 157.88 53.92 158.27 55.78 172.09 55.78 171.7 53.92"/><polygon class="cls-6" points="172.7 50.94 142.26 50.94 142.65 52.81 173.09 52.81 172.7 50.94"/><polygon class="cls-6" points="171.86 65.82 145.36 65.82 145.75 67.68 172.25 67.68 171.86 65.82"/><polygon class="cls-6" points="152.45 62.84 144.74 62.84 145.13 64.71 152.84 64.71 152.45 62.84"/><polygon class="cls-6" points="164.51 62.84 153.51 62.84 153.9 64.71 164.9 64.71 164.51 62.84"/><polygon class="cls-6" points="174.56 59.87 144.12 59.87 144.51 61.73 174.95 61.73 174.56 59.87"/><polygon class="cls-6" points="93.49 68.13 72.75 68.13 73.14 69.99 93.88 69.99 93.49 68.13"/><polygon class="cls-6" points="87.35 65.15 72.13 65.15 72.52 67.02 87.74 67.02 87.35 65.15"/><polygon class="cls-6" points="103.65 65.15 88.43 65.15 88.82 67.02 104.04 67.02 103.65 65.15"/><polygon class="cls-6" points="101.95 62.17 71.51 62.17 71.9 64.04 102.34 64.04 101.95 62.17"/><polygon class="cls-2" points="334.84 124 322 124 323.5 143.42 333.34 143.42 334.84 124"/><polygon class="cls-9" points="334.84 124 322 124 323.5 143.42 333.34 143.42 334.84 124"/><polygon class="cls-4" points="55.02 110.51 73.48 110.51 67.18 143.42 48.72 143.42 55.02 110.51"/><polygon class="cls-2" points="78.53 101.68 52.46 101.68 59.76 143.42 85.83 143.42 78.53 101.68"/><polygon class="cls-2" points="50.92 101.68 52.46 101.68 59.76 143.42 58.22 143.42 50.92 101.68"/><polygon class="cls-10" points="50.92 101.68 52.46 101.68 59.76 143.42 58.22 143.42 50.92 101.68"/><polygon class="cls-5" points="63.51 138.96 57.77 106.14 74.78 106.14 80.52 138.96 63.51 138.96"/><polygon class="cls-11" points="79.71 138.96 73.98 106.14 74.78 106.14 80.52 138.96 79.71 138.96"/></g><g id="Character"><path class="cls-4" d="M263.77,156c.37.8.25,1.65-.28,1.89s-1.25-.21-1.62-1-.24-1.65.28-1.89S263.4,155.16,263.77,156Z" transform="translate(-56.11 -107.67)"/><path class="cls-12" d="M264.09,157.58s.32,5.46-.66,8.62c2,.67,4.16-1,4.16-1Z" transform="translate(-56.11 -107.67)"/><path class="cls-4" d="M263.87,149.39a.53.53,0,0,1-.3.12,4.12,4.12,0,0,0-3.29,1.79.52.52,0,1,1-.9-.52,5.14,5.14,0,0,1,4.13-2.31.52.52,0,0,1,.36.92Z" transform="translate(-56.11 -107.67)"/><path class="cls-13" d="M293.22,154.76c3.09,10.7,6.54,19,10.75,23.74,0,0,.08,8.41-14.25,12.41-15.76,4.4-9.72-5.72-9.72-5.72,8-4.45,7.24-11.17,1.22-13.73Z" transform="translate(-56.11 -107.67)"/><path class="cls-4" d="M307.31,176.45c-.28-3.91-.65-8.37-3.06-8.49-2.66-.12-18.06,6.76-21.35,11.61s3.14,9.6,3.14,9.6Z" transform="translate(-56.11 -107.67)"/><path class="cls-13" d="M275.79,237l-13.3-.44.24,11.14s11.6-1.2,12.11-4.25Z" transform="translate(-56.11 -107.67)"/><polygon class="cls-13" points="199.35 134.37 197.95 140.06 206.61 140.04 206.38 128.9 199.35 134.37"/><path class="cls-2" d="M329.17,190.71l-.28,2.86c-.09.92-.21,1.82-.33,2.73-.23,1.81-.52,3.62-.83,5.42-.6,3.61-1.38,7.2-2.28,10.81a107.83,107.83,0,0,1-3.32,10.87c-.69,1.83-1.41,3.66-2.27,5.52a45.73,45.73,0,0,1-3,5.65c-.27.47-.61,1-.94,1.44s-.65,1-1,1.46-.72,1-1.18,1.47l-.65.74a10.06,10.06,0,0,1-.74.78,22.81,22.81,0,0,1-6.93,4.65,41,41,0,0,1-12.43,3.15c-1.95.23-3.88.32-5.77.37s-3.78,0-5.64-.1-3.7-.26-5.53-.48-3.61-.51-5.55-.9l.32-10.45a160.33,160.33,0,0,0,18.9-4.5,41.44,41.44,0,0,0,4.06-1.56,18.63,18.63,0,0,0,3.22-1.75,4.48,4.48,0,0,0,1.46-1.42l.29-.46a6.53,6.53,0,0,0,.37-.61,7.56,7.56,0,0,0,.39-.71c.13-.26.27-.5.4-.79a52.59,52.59,0,0,0,2.89-7.94c.82-2.94,1.59-6,2.21-9.17s1.22-6.37,1.77-9.6l.76-4.86.69-4.73Z" transform="translate(-56.11 -107.67)"/><path class="cls-14" d="M329.17,190.71l-.28,2.86c-.09.92-.21,1.82-.33,2.73-.23,1.81-.52,3.62-.83,5.42-.6,3.61-1.38,7.2-2.28,10.81a107.83,107.83,0,0,1-3.32,10.87c-.69,1.83-1.41,3.66-2.27,5.52a45.73,45.73,0,0,1-3,5.65c-.27.47-.61,1-.94,1.44s-.65,1-1,1.46-.72,1-1.18,1.47l-.65.74a10.06,10.06,0,0,1-.74.78,22.81,22.81,0,0,1-6.93,4.65,41,41,0,0,1-12.43,3.15c-1.95.23-3.88.32-5.77.37s-3.78,0-5.64-.1-3.7-.26-5.53-.48-3.61-.51-5.55-.9l.32-10.45a160.33,160.33,0,0,0,18.9-4.5,41.44,41.44,0,0,0,4.06-1.56,18.63,18.63,0,0,0,3.22-1.75,4.48,4.48,0,0,0,1.46-1.42l.29-.46a6.53,6.53,0,0,0,.37-.61,7.56,7.56,0,0,0,.39-.71c.13-.26.27-.5.4-.79a52.59,52.59,0,0,0,2.89-7.94c.82-2.94,1.59-6,2.21-9.17s1.22-6.37,1.77-9.6l.76-4.86.69-4.73Z" transform="translate(-56.11 -107.67)"/><path class="cls-2" d="M270.12,204a326.55,326.55,0,0,1,8.33,65.14H337c.32-7.23-.9-48-6.79-77.45a20.4,20.4,0,0,0-24.4-16l-.28.07c-7.31,1.66-17.8,4.34-24,6.69l-.25.1A18.33,18.33,0,0,0,270.12,204Z" transform="translate(-56.11 -107.67)"/><path class="cls-14" d="M273.93,222.7c.46,2.81.93,5.79,1.36,8.91,4.79-5,6.31-20.32,6.31-20.32Z" transform="translate(-56.11 -107.67)"/><path class="cls-13" d="M225.29,237.73,212,236.49l-.44,11.13A12.48,12.48,0,0,0,224,244.11Z" transform="translate(-56.11 -107.67)"/><polygon class="cls-13" points="149.57 132.1 145.31 139.75 155.49 139.95 155.93 128.82 149.57 132.1"/><path class="cls-2" d="M292.09,198.87c-.92,1.75-1.74,3.3-2.66,4.9s-1.8,3.16-2.75,4.71c-1.88,3.12-3.83,6.18-5.89,9.21a153.64,153.64,0,0,1-13.71,17.64,75.7,75.7,0,0,1-8.69,8.27c-.39.33-.85.65-1.28,1s-.81.63-1.45,1-1.18.74-1.76,1.06-1.18.61-1.77.87a31.42,31.42,0,0,1-6.88,2.09,43.44,43.44,0,0,1-12.52.28,52,52,0,0,1-5.8-1q-1.43-.33-2.82-.75c-1-.28-1.81-.59-2.88-1l1.65-10.32c6.28-.85,13.07-1.94,17.75-4.06a12.83,12.83,0,0,0,2.91-1.67,6.81,6.81,0,0,0,1-.84c.07-.09.38-.36.61-.58s.5-.43.75-.69a71.37,71.37,0,0,0,6-6.75,195.49,195.49,0,0,0,11.27-16.16c1.8-2.83,3.55-5.71,5.3-8.6l2.58-4.34,2.49-4.27Z" transform="translate(-56.11 -107.67)"/><polygon class="cls-13" points="219.91 299.94 208.97 299.94 203.46 274.58 214.41 274.58 219.91 299.94"/><path class="cls-4" d="M264.47,405.26h12.3a1,1,0,0,1,.93.74l2.16,9.74a1.6,1.6,0,0,1-1.6,1.94c-4.29-.07-6.38-.32-11.79-.32-3.33,0-7.6.34-12.19.34s-5.2-4.54-3.32-4.95c8.44-1.85,9-4.39,11.73-6.82A2.64,2.64,0,0,1,264.47,405.26Z" transform="translate(-56.11 -107.67)"/><g class="cls-15"><polygon points="214.41 274.59 203.46 274.59 206.51 288.63 217.26 287.66 214.41 274.59"/></g><path class="cls-13" d="M289.71,141.9c4,10.12,6.78,15.85,4.14,23.2-4,11.05-18.19,12.17-25.09,3.43-6.2-7.87-11.62-23.1-3.79-31.47A14.81,14.81,0,0,1,289.71,141.9Z" transform="translate(-56.11 -107.67)"/><path class="cls-4" d="M270.49,157.06c-1.64,2.2-2.9,3.87-2.9,3.87s-3.37-8.37-2.08-12.21c-1.64-3.25-4.95,1.54-6.2-4.79s4.16-13.13,6.2-14.54a7.41,7.41,0,0,1,.28,2.27,28,28,0,0,1,19.6-6.19,6.77,6.77,0,0,0-1.1,2.94s11.87,2,14.57,8.72a12.83,12.83,0,0,0-3-1,14.49,14.49,0,0,1,2.4,10.72,110.21,110.21,0,0,0-1.34,16.53c.11,2.84-7.68,8.27-12.43,2.47S270.49,157.06,270.49,157.06Z" transform="translate(-56.11 -107.67)"/><path class="cls-13" d="M275.44,154.88a11.07,11.07,0,0,1-.5,7.1c-1.27,3-3.88,2.28-5.17-.34-1.17-2.35-1.92-6.71.15-8.8S274.66,152.05,275.44,154.88Z" transform="translate(-56.11 -107.67)"/><path class="cls-2" d="M296,269.1s-50.84,18.44-52.33,42.83c-2.76,44.93,15.61,80.5,15.61,80.5l16.84-1.8s-3-14.46-5.23-55.16c-2.81-51.15,84,1.2,66.12-66.37Z" transform="translate(-56.11 -107.67)"/><path class="cls-16" d="M296,269.1s-50.84,18.44-52.33,42.83c-2.76,44.93,15.61,80.5,15.61,80.5l16.84-1.8s-3-14.46-5.23-55.16c-2.81-51.15,84,1.2,66.12-66.37Z" transform="translate(-56.11 -107.67)"/><path class="cls-2" d="M254.62,386.23c-.08,0,2.68,7.48,2.68,7.48l21-2.06-1.05-6.8Z" transform="translate(-56.11 -107.67)"/><polygon class="cls-13" points="172.62 301.18 161.67 301.18 158.47 275.83 169.42 275.83 172.62 301.18"/><path class="cls-4" d="M217.7,405.25h12a.94.94,0,0,1,.93.74l2.18,9.73a1.59,1.59,0,0,1-1.57,2c-4.31-.07-10.55-.31-16-.3-6.34,0-7.55.35-15,.36-4.5,0-5.75-4.53-3.87-5,8.56-1.88,11.3-2.09,18.69-6.66A5,5,0,0,1,217.7,405.25Z" transform="translate(-56.11 -107.67)"/><polygon class="cls-14" points="158.48 275.83 160.22 289.64 171.07 288.9 169.43 275.83 158.48 275.83"/><path class="cls-2" d="M278.45,269.1s-83.3,7.39-82.4,49.23c.93,43.52,17.19,72.87,17.19,72.87H229.5s-3.08-22.58-2.53-65.42c.16-12.83,26.1-17.07,51.42-18.57,21.88-1.3,42.36-13.77,50.86-34L331,269.1Z" transform="translate(-56.11 -107.67)"/><path class="cls-16" d="M278.45,269.1s-83.3,7.39-82.4,49.23c.93,43.52,17.19,72.87,17.19,72.87H229.5s-3.08-22.58-2.53-65.42c.16-12.83,26.1-17.07,51.42-18.57,21.88-1.3,42.36-13.77,50.86-34L331,269.1Z" transform="translate(-56.11 -107.67)"/><path class="cls-2" d="M209.43,386.83c-.07,0,2.79,7.52,2.79,7.52l19.64-1.41-1.15-6.8Z" transform="translate(-56.11 -107.67)"/><path class="cls-4" d="M300.32,222.08l-10.57,40.73a127.1,127.1,0,0,0-4.06,31.95v18.93c0,4.78,3.52,8.66,7.87,8.66h54.18c4.35,0,7.87-3.88,7.87-8.66V294.76a127.11,127.11,0,0,1,4.07-31.95l9.33-36c1.44-5.53-2.34-11-7.57-11H307.88A8,8,0,0,0,300.32,222.08Z" transform="translate(-56.11 -107.67)"/><path class="cls-4" d="M232.93,302.63l1.77,10.1c.94,5.31,5.61,9.62,10.44,9.62h60.23c4.83,0,8-4.31,7.06-9.62l-1.77-10.1c-1.07-6.05-6.38-10.95-11.88-10.95H241C235.46,291.68,231.87,296.58,232.93,302.63Z" transform="translate(-56.11 -107.67)"/><polygon class="cls-2" points="255.06 224.82 223.51 224.82 220.43 214.68 258.14 214.68 255.06 224.82"/><rect class="cls-2" x="233.65" y="224.82" width="11.27" height="75.41"/><polygon class="cls-17" points="244.92 300.24 233.65 300.24 233.65 226.63 244.92 227.78 244.92 300.24"/><polygon class="cls-17" points="242.17 300.24 239.48 300.24 239.48 227.23 242.17 227.5 242.17 300.24"/><path class="cls-2" d="M321.31,419.56H269.47a1.44,1.44,0,0,1-.84-2.6l8.22-6a23.08,23.08,0,0,1,13.62-4.46h9.85a23.07,23.07,0,0,1,13.61,4.46l8.23,6A1.44,1.44,0,0,1,321.31,419.56Z" transform="translate(-56.11 -107.67)"/></g></svg>